HIERARCHY
ROOT Hips
{
  OFFSET 54.8664 57.6768 13.2636
  CHANNELS 6 Xposition Yposition Zposition Zrotation Xrotation Yrotation
  JOINT spine
  {
    OFFSET 0 8.13249 0.467659
    CHANNELS 3 Zrotation Xrotation Yrotation
    JOINT spine1
    {
      OFFSET 0 10.3498 0
      CHANNELS 3 Zrotation Xrotation Yrotation
      JOINT spine2
      {
        OFFSET 0 9.91699 0
        CHANNELS 3 Zrotation Xrotation Yrotation
        JOINT Neck
        {
          OFFSET 0 25.461 1.2139
          CHANNELS 3 Zrotation Xrotation Yrotation
          JOINT Head
          {
            OFFSET 0 7.69245 0
            CHANNELS 3 Zrotation Xrotation Yrotation
            End Site
            {
              OFFSET 0 18.62 -6.14063
            }
          }
        }
        JOINT RightShoulder
        {
          OFFSET -4.17575 10.7096 -0.581445
          CHANNELS 3 Zrotation Xrotation Yrotation
          JOINT RightArm
          {
            OFFSET 0 14.0466 0
            CHANNELS 3 Zrotation Xrotation Yrotation
            JOINT RightArmRoll
            {
              OFFSET 0 7.09099 0
              CHANNELS 3 Zrotation Xrotation Yrotation
              JOINT RightForeArm
              {
                OFFSET 0 20.6535 0
                CHANNELS 3 Zrotation Xrotation Yrotation
                JOINT RightForeArmRoll
                {
                  OFFSET 0 7.95718 0
                  CHANNELS 3 Zrotation Xrotation Yrotation
                  JOINT RightHand
                  {
                    OFFSET 0 15.9683 0
                    CHANNELS 3 Zrotation Xrotation Yrotation
                    End Site
                    {
                      OFFSET 0 0 0
                    }
                  }
                }
              }
            }
          }
        }
        JOINT LeftShoulder
        {
          OFFSET 4.17575 10.7096 -0.581445
          CHANNELS 3 Zrotation Xrotation Yrotation
          JOINT LeftArm
          {
            OFFSET 0 14.0466 0
            CHANNELS 3 Zrotation Xrotation Yrotation
            JOINT LeftArmRoll
            {
              OFFSET 0 7.09099 0
              CHANNELS 3 Zrotation Xrotation Yrotation
              JOINT LeftForeArm
              {
                OFFSET 0 20.6535 0
                CHANNELS 3 Zrotation Xrotation Yrotation
                JOINT LeftForeArmRoll
                {
                  OFFSET 0 7.95718 0
                  CHANNELS 3 Zrotation Xrotation Yrotation
                  JOINT LeftHand
                  {
                    OFFSET 0 15.9683 0
                    CHANNELS 3 Zrotation Xrotation Yrotation
                    End Site
                    {
                      OFFSET 0 0 0
                    }
                  }
                }
              }
            }
          }
        }
      }
    }
  }
  JOINT RightUpLeg
  {
    OFFSET -7.20834 -1.32182 -1.10884
    CHANNELS 3 Zrotation Xrotation Yrotation
    JOINT RightUpLegRoll
    {
      OFFSET 0 18.7238 0
      CHANNELS 3 Zrotation Xrotation Yrotation
      JOINT RightLeg
      {
        OFFSET 0 -23.1866 0
        CHANNELS 3 Zrotation Xrotation Yrotation
        JOINT RightLegRoll
        {
          OFFSET 0 23.2624 0
          CHANNELS 3 Zrotation Xrotation Yrotation
          JOINT RightFoot
          {
            OFFSET 0 19.3621 0
            CHANNELS 3 Zrotation Xrotation Yrotation
            JOINT RightToeBase
            {
              OFFSET 0 16.1857 0
              CHANNELS 3 Zrotation Xrotation Yrotation
              End Site
              {
                OFFSET 0.00686052 7.83863 -0.903521
              }
            }
          }
        }
      }
    }
  }
  JOINT LeftUpLeg
  {
    OFFSET 7.20834 -1.32182 -1.10884
    CHANNELS 3 Zrotation Xrotation Yrotation
    JOINT LeftUpLegRoll
    {
      OFFSET 0 18.7239 0
      CHANNELS 3 Zrotation Xrotation Yrotation
      JOINT LeftLeg
      {
        OFFSET 0 23.1865 0
        CHANNELS 3 Zrotation Xrotation Yrotation
        JOINT LeftLegRoll
        {
          OFFSET 0 23.4775 0
          CHANNELS 3 Zrotation Xrotation Yrotation
          JOINT LeftFoot
          {
            OFFSET 0 19.147 0
            CHANNELS 3 Zrotation Xrotation Yrotation
            JOINT LeftToeBase
            {
              OFFSET 0 16.1857 0
              CHANNELS 3 Zrotation Xrotation Yrotation
              End Site
              {
                OFFSET -0.0307459 7.83863 -0.903521
              }
            }
          }
        }
      }
    }
  }
}
MOTION
Frames: 8
Frame Time: 0.00208333
52.9418 63.101 20.9496 -0.89056 18.8593 0.21571 1.00011 2.62237 5.75928e-005 2.0192 9.24523 -0.177268 2.02758 10.8897 -0.212069 -5.82318 12.3715 -4.29281 0.660115 7.82191 -5.89105 44.5895 -8.26973 -4.74754 127.632 31.2427 -38.4134 -1.67054e-006 2.70513e-007 7.76101e-006 23.6473 68.3617 -19.2168 1.9215e-006 3.63882e-006 -3.00643 8.02892 -4.95148 0.697704 -56.4157 -6.44474 3.88136 -119.601 33.5889 38.4876 6.21236e-006 3.09363e-007 4.92681e-006 -7.17637 61.3118 3.69874 1.11124e-005 4.87707e-006 3.00813 -8.02895 -4.95148 -0.69769 57.6854 79.8603 126.655 -180 7.01568e-015 179.017 168.636 83.8864 -173.257 -2.43837e-006 -5.43981e-006 1.85206 -23.2942 70.2578 21.8003 8.13649 25.2327 -3.48774 -57.0485 79.0501 -123.683 4.5067e-006 -1.99009e-005 -0.847706 22.0008 -85.1899 23.624 1.5033e-006 1.23405e-006 -2.05419 19.4018 71.6024 -22.832 -8.13651 25.2329 3.48747 
52.934 63.028 20.8959 -0.876198 18.7485 0.204497 1.00203 2.62126 -0.000399674 2.02312 9.24298 -0.17848 2.03153 10.8875 -0.213352 -5.91191 12.3545 -4.27435 0.722793 7.8552 -5.89345 44.5288 -8.27836 -4.75288 127.689 31.2381 -38.4076 -1.67054e-006 2.70513e-007 7.76101e-006 23.6298 68.3457 -19.203 1.9215e-006 3.63882e-006 -3.00643 8.02892 -4.95148 0.697704 -56.4569 -6.42202 3.86864 -119.539 33.6059 38.5025 6.21236e-006 3.09363e-007 4.92681e-006 -7.16899 61.3073 3.68944 1.11124e-005 4.87707e-006 3.00813 -8.02895 -4.95148 -0.69769 57.651 79.849 126.693 -180 7.01567e-015 179.015 168.767 83.9423 -173.373 -2.43837e-006 -5.43981e-006 1.85702 -23.2315 70.1956 21.7312 8.13649 25.2327 -3.48774 -56.9556 79.069 -123.76 4.5067e-006 -1.99009e-005 -0.848113 22.6397 -85.2328 24.2384 1.5033e-006 1.23405e-006 -2.05403 19.3083 71.5497 -22.7703 -8.13651 25.2329 3.48747 
52.9219 62.9689 20.8225 -0.861624 18.6374 0.193917 1.00433 2.61991 -0.000819811 2.02777 9.24027 -0.179694 2.03621 10.8848 -0.214648 -6.00725 12.3348 -4.25494 0.790072 7.89227 -5.89642 44.4635 -8.2878 -4.75877 127.751 31.2333 -38.4003 -1.67054e-006 2.70513e-007 7.76101e-006 23.6103 68.3256 -19.1864 1.9215e-006 3.63882e-006 -3.00643 8.02892 -4.95148 0.697704 -56.502 -6.39802 3.8553 -119.475 33.6235 38.5167 6.21236e-006 3.09363e-007 4.92681e-006 -7.16171 61.3009 3.68034 1.11124e-005 4.87707e-006 3.00813 -8.02895 -4.95148 -0.69769 57.6252 79.8373 126.722 -180 7.01567e-015 179.013 168.896 83.9964 -173.487 -2.43837e-006 -5.43981e-006 1.862 -23.1699 70.1324 21.6615 8.13649 25.2327 -3.48774 -56.8629 79.0897 -123.835 4.5067e-006 -1.99009e-005 -0.84853 23.2838 -85.273 24.858 1.5033e-006 1.23405e-006 -2.05365 19.2131 71.4957 -22.7077 -8.13651 25.2329 3.48747 
52.9301 62.8906 20.7643 -0.846868 18.5258 0.18388 1.00692 2.61837 -0.00119157 2.03299 9.23718 -0.18087 2.04146 10.8817 -0.215915 -6.10737 12.3131 -4.23491 0.860482 7.93215 -5.89988 44.3952 -8.29808 -4.76526 127.816 31.2287 -38.392 -1.67054e-006 2.70513e-007 7.76101e-006 23.5895 68.3018 -19.1676 1.9215e-006 3.63882e-006 -3.00643 8.02892 -4.95148 0.697704 -56.5502 -6.37309 3.84152 -119.409 33.6417 38.5301 6.21236e-006 3.09363e-007 4.92681e-006 -7.15493 61.2924 3.67159 1.11124e-005 4.87707e-006 3.00813 -8.02895 -4.95148 -0.69769 57.6082 79.8253 126.743 -180 7.01566e-015 179.011 169.023 84.0491 -173.599 -2.43837e-006 -5.43981e-006 1.867 -23.1093 70.0688 21.5919 8.13649 25.2327 -3.48774 -56.7724 79.1118 -123.909 4.5067e-006 -1.99009e-005 -0.848989 23.9317 -85.3111 25.4813 1.5033e-006 1.23405e-006 -2.05313 19.1173 71.4408 -22.6445 -8.13651 25.2329 3.48747 
52.9253 62.824 20.7028 -0.83196 18.4138 0.174298 1.00971 2.61669 -0.00150369 2.03861 9.2338 -0.18197 2.04711 10.8783 -0.217112 -6.21042 12.2902 -4.21459 0.932552 7.97386 -5.90373 44.3254 -8.30922 -4.7724 127.885 31.2246 -38.3833 -1.67054e-006 2.70513e-007 7.76101e-006 23.5677 68.2746 -19.1467 1.9215e-006 3.63882e-006 -3.00643 8.02892 -4.95148 0.697704 -56.6007 -6.34757 3.82746 -119.344 33.6607 38.5429 6.21236e-006 3.09363e-007 4.92681e-006 -7.14906 61.2814 3.66334 1.11124e-005 4.87707e-006 3.00813 -8.02895 -4.95148 -0.69769 57.6002 79.8133 126.755 -180 7.01566e-015 179.01 169.149 84.1009 -173.711 -2.43837e-006 -5.43981e-006 1.872 -23.0499 70.005 21.5227 8.13649 25.2327 -3.48774 -56.686 79.1349 -123.978 4.5067e-006 -1.99009e-005 -0.849523 24.5822 -85.3473 26.1073 1.5033e-006 1.23405e-006 -2.05255 19.0219 71.3852 -22.5812 -8.13651 25.2329 3.48747 
52.9307 62.7517 20.6392 -0.816928 18.3011 0.165084 1.01262 2.61489 -0.00174493 2.04448 9.23019 -0.182956 2.053 10.8747 -0.218199 -6.31457 12.2665 -4.19428 1.00481 8.01645 -5.90787 44.2556 -8.32122 -4.78024 127.954 31.2216 -38.3746 -1.67054e-006 2.70513e-007 7.76101e-006 23.5456 68.2441 -19.1242 1.9215e-006 3.63882e-006 -3.00643 8.02892 -4.95148 0.697704 -56.6525 -6.32179 3.81332 -119.278 33.6808 38.5552 6.21236e-006 3.09363e-007 4.92681e-006 -7.14452 61.2675 3.65575 1.11124e-005 4.87707e-006 3.00813 -8.02895 -4.95148 -0.69769 57.6013 79.8015 126.757 -180 7.01566e-015 179.008 169.276 84.1522 -173.824 -2.43837e-006 -5.43981e-006 1.87696 -22.9918 69.9415 21.4544 8.13649 25.2327 -3.48774 -56.6058 79.1588 -124.043 4.5067e-006 -1.99009e-005 -0.850165 25.2342 -85.3822 26.7349 1.5033e-006 1.23405e-006 -2.05197 18.9277 71.3294 -22.5181 -8.13651 25.2329 3.48747 
52.926 62.6794 20.5841 -0.801806 18.1875 0.156149 1.01558 2.61302 -0.00190404 2.05043 9.22645 -0.18379 2.05898 10.8709 -0.219135 -6.41797 12.2428 -4.17433 1.07579 8.05895 -5.91221 44.1874 -8.3341 -4.78886 128.023 31.2199 -38.3664 -1.67054e-006 2.70513e-007 7.76101e-006 23.5236 68.2108 -19.1005 1.9215e-006 3.63882e-006 -3.00643 8.02892 -4.95148 0.697704 -56.7047 -6.2961 3.79926 -119.214 33.7018 38.567 6.21236e-006 3.09363e-007 4.92681e-006 -7.14171 61.2505 3.64895 1.11124e-005 4.87707e-006 3.00813 -8.02895 -4.95148 -0.69769 57.6118 79.7901 126.751 -180 7.01565e-015 179.006 169.406 84.2034 -173.94 -2.43837e-006 -5.43981e-006 1.88189 -22.9348 69.8788 21.3873 8.13649 25.2327 -3.48774 -56.5336 79.1831 -124.1 4.5067e-006 -1.99009e-005 -0.850947 25.8866 -85.4162 27.3633 1.5033e-006 1.23405e-006 -2.05148 18.8359 71.2736 -22.4556 -8.13651 25.2329 3.48747 
52.9268 62.6085 20.5198 -0.786625 18.0731 0.147405 1.01851 2.61113 -0.00196975 2.05629 9.22266 -0.184433 2.06486 10.8671 -0.219877 -6.51879 12.2197 -4.15504 1.14401 8.10039 -5.91666 44.1223 -8.34788 -4.79829 128.09 31.2199 -38.3594 -1.67054e-006 2.70513e-007 7.76101e-006 23.5022 68.1749 -19.0757 1.9215e-006 3.63882e-006 -3.00643 8.02892 -4.95148 0.697704 -56.7566 -6.27084 3.78546 -119.152 33.7241 38.5784 6.21236e-006 3.09363e-007 4.92681e-006 -7.14105 61.2299 3.64311 1.11124e-005 4.87707e-006 3.00813 -8.02895 -4.95148 -0.69769 57.6318 79.7792 126.734 -180 7.01565e-015 179.004 169.539 84.2551 -174.059 -2.43837e-006 -5.43981e-006 1.88675 -22.8791 69.8172 21.3219 8.13649 25.2327 -3.48774 -56.4716 79.2075 -124.149 4.5067e-006 -1.99009e-005 -0.851902 26.5388 -85.4497 27.9918 1.5033e-006 1.23405e-006 -2.05115 18.7472 71.2182 -22.3942 -8.13651 25.2329 3.48747 
